<?xml version="1.0" encoding="utf-8"?>
<svg version="1.1" xmlns:xlink="http://www.w3.org/1999/xlink" width="12px" height="12px" viewBox="174 157.5  12 12" xmlns="http://www.w3.org/2000/svg">
  <path d="M 180 157.5  C 183.36 157.5  186 160.14  186 163.5  C 186 166.86  183.36 169.5  180 169.5  C 176.64 169.5  174 166.86  174 163.5  C 174 160.14  176.64 157.5  180 157.5  Z " fill-rule="nonzero" fill="#ffffff" stroke="none" />
  <path d="M 180 158  C 183.08 158  185.5 160.42  185.5 163.5  C 185.5 166.58  183.08 169  180 169  C 176.92 169  174.5 166.58  174.5 163.5  C 174.5 160.42  176.92 158  180 158  Z " stroke-width="1" stroke="#797979" fill="none" />
  <path d="M 180 166.5  C 178.32 166.5  177 165.18  177 163.5  C 177 161.82  178.32 160.5  180 160.5  C 181.68 160.5  183 161.82  183 163.5  C 183 165.18  181.68 166.5  180 166.5  " fill-rule="nonzero" fill="#797979" stroke="none" />
</svg>