<?xml version="1.0" encoding="utf-8"?>
<svg version="1.1" xmlns:xlink="http://www.w3.org/1999/xlink" width="12px" height="12px" viewBox="294 157.5  12 12" xmlns="http://www.w3.org/2000/svg">
  <path d="M 300 157.5  C 303.36 157.5  306 160.14  306 163.5  C 306 166.86  303.36 169.5  300 169.5  C 296.64 169.5  294 166.86  294 163.5  C 294 160.14  296.64 157.5  300 157.5  Z " fill-rule="nonzero" fill="#ffffff" stroke="none" />
  <path d="M 300 158  C 303.08 158  305.5 160.42  305.5 163.5  C 305.5 166.58  303.08 169  300 169  C 296.92 169  294.5 166.58  294.5 163.5  C 294.5 160.42  296.92 158  300 158  Z " stroke-width="1" stroke="#797979" fill="none" />
  <path d="M 300 166.5  C 298.32 166.5  297 165.18  297 163.5  C 297 161.82  298.32 160.5  300 160.5  C 301.68 160.5  303 161.82  303 163.5  C 303 165.18  301.68 166.5  300 166.5  " fill-rule="nonzero" fill="#797979" stroke="none" />
</svg>