<?xml version="1.0" encoding="utf-8"?>
<svg version="1.1" xmlns:xlink="http://www.w3.org/1999/xlink" width="82px" height="71px" xmlns="http://www.w3.org/2000/svg">
  <g transform="matrix(1 0 0 1 -195 -140 )">
    <path d="M 195 140  L 277 140  L 277 211  L 195 211  L 195 140  " fill-rule="nonzero" fill="#cccccc" stroke="none" />
    <path d="M 200 145  L 272 145  L 272 206  L 200 206  L 200 145  " fill-rule="nonzero" fill="#ffffff" stroke="none" />
    <path d="M 242.965 161.3  C 239.983 161.3  237.64 158.957  237.64 155.975  C 237.64 152.993  239.983 150.65  242.965 150.65  C 245.947 150.65  248.29 152.993  248.29 155.975  C 248.29 158.957  245.947 161.3  242.965 161.3  " fill-rule="nonzero" fill="#cccccc" stroke="none" />
    <path d="M 202 204  L 202 172.65  L 219 158.4  L 242.8 174.387804878049  L 256.4 166.95  L 270 174.387804878049  L 270 204  L 202 204  " fill-rule="nonzero" fill="#169bd5" stroke="none" />
  </g>
</svg>