<?xml version="1.0" encoding="utf-8"?>
<svg version="1.1" xmlns:xlink="http://www.w3.org/1999/xlink" width="12px" height="12px" viewBox="142 235  12 12" xmlns="http://www.w3.org/2000/svg">
  <path d="M 148 235  C 151.36 235  154 237.64  154 241  C 154 244.36  151.36 247  148 247  C 144.64 247  142 244.36  142 241  C 142 237.64  144.64 235  148 235  Z " fill-rule="nonzero" fill="#ffffff" stroke="none" />
  <path d="M 148 235.5  C 151.08 235.5  153.5 237.92  153.5 241  C 153.5 244.08  151.08 246.5  148 246.5  C 144.92 246.5  142.5 244.08  142.5 241  C 142.5 237.92  144.92 235.5  148 235.5  Z " stroke-width="1" stroke="#797979" fill="none" />
  <path d="M 148 244  C 146.32 244  145 242.68  145 241  C 145 239.32  146.32 238  148 238  C 149.68 238  151 239.32  151 241  C 151 242.68  149.68 244  148 244  " fill-rule="nonzero" fill="#797979" stroke="none" />
</svg>