<?xml version="1.0" encoding="utf-8"?>
<svg version="1.1" xmlns:xlink="http://www.w3.org/1999/xlink" width="12px" height="12px" viewBox="158 119  12 12" xmlns="http://www.w3.org/2000/svg">
  <path d="M 164 119  C 167.36 119  170 121.64  170 125  C 170 128.36  167.36 131  164 131  C 160.64 131  158 128.36  158 125  C 158 121.64  160.64 119  164 119  Z " fill-rule="nonzero" fill="#ffffff" stroke="none" />
  <path d="M 164 119.5  C 167.08 119.5  169.5 121.92  169.5 125  C 169.5 128.08  167.08 130.5  164 130.5  C 160.92 130.5  158.5 128.08  158.5 125  C 158.5 121.92  160.92 119.5  164 119.5  Z " stroke-width="1" stroke="#797979" fill="none" />
  <path d="M 164 128  C 162.32 128  161 126.68  161 125  C 161 123.32  162.32 122  164 122  C 165.68 122  167 123.32  167 125  C 167 126.68  165.68 128  164 128  " fill-rule="nonzero" fill="#797979" stroke="none" />
</svg>