<?xml version="1.0" encoding="utf-8"?>
<svg version="1.1" xmlns:xlink="http://www.w3.org/1999/xlink" width="12px" height="12px" viewBox="58 119  12 12" xmlns="http://www.w3.org/2000/svg">
  <path d="M 64 119  C 67.36 119  70 121.64  70 125  C 70 128.36  67.36 131  64 131  C 60.64 131  58 128.36  58 125  C 58 121.64  60.64 119  64 119  Z " fill-rule="nonzero" fill="#ffffff" stroke="none" />
  <path d="M 64 119.5  C 67.08 119.5  69.5 121.92  69.5 125  C 69.5 128.08  67.08 130.5  64 130.5  C 60.92 130.5  58.5 128.08  58.5 125  C 58.5 121.92  60.92 119.5  64 119.5  Z " stroke-width="1" stroke="#797979" fill="none" />
  <path d="M 64 128  C 62.32 128  61 126.68  61 125  C 61 123.32  62.32 122  64 122  C 65.68 122  67 123.32  67 125  C 67 126.68  65.68 128  64 128  " fill-rule="nonzero" fill="#797979" stroke="none" />
</svg>