<?xml version="1.0" encoding="utf-8"?>
<svg version="1.1" xmlns:xlink="http://www.w3.org/1999/xlink" width="12px" height="12px" viewBox="419 235  12 12" xmlns="http://www.w3.org/2000/svg">
  <path d="M 425 235  C 428.36 235  431 237.64  431 241  C 431 244.36  428.36 247  425 247  C 421.64 247  419 244.36  419 241  C 419 237.64  421.64 235  425 235  Z " fill-rule="nonzero" fill="#ffffff" stroke="none" />
  <path d="M 425 235.5  C 428.08 235.5  430.5 237.92  430.5 241  C 430.5 244.08  428.08 246.5  425 246.5  C 421.92 246.5  419.5 244.08  419.5 241  C 419.5 237.92  421.92 235.5  425 235.5  Z " stroke-width="1" stroke="#797979" fill="none" />
  <path d="M 425 244  C 423.32 244  422 242.68  422 241  C 422 239.32  423.32 238  425 238  C 426.68 238  428 239.32  428 241  C 428 242.68  426.68 244  425 244  " fill-rule="nonzero" fill="#797979" stroke="none" />
</svg>