<?xml version="1.0" encoding="utf-8"?>
<svg version="1.1" xmlns:xlink="http://www.w3.org/1999/xlink" width="12px" height="12px" viewBox="354 119  12 12" xmlns="http://www.w3.org/2000/svg">
  <path d="M 360 119  C 363.36 119  366 121.64  366 125  C 366 128.36  363.36 131  360 131  C 356.64 131  354 128.36  354 125  C 354 121.64  356.64 119  360 119  Z " fill-rule="nonzero" fill="#ffffff" stroke="none" />
  <path d="M 360 119.5  C 363.08 119.5  365.5 121.92  365.5 125  C 365.5 128.08  363.08 130.5  360 130.5  C 356.92 130.5  354.5 128.08  354.5 125  C 354.5 121.92  356.92 119.5  360 119.5  Z " stroke-width="1" stroke="#797979" fill="none" />
  <path d="M 360 128  C 358.32 128  357 126.68  357 125  C 357 123.32  358.32 122  360 122  C 361.68 122  363 123.32  363 125  C 363 126.68  361.68 128  360 128  " fill-rule="nonzero" fill="#797979" stroke="none" />
</svg>