<?xml version="1.0" encoding="utf-8"?>
<svg version="1.1" xmlns:xlink="http://www.w3.org/1999/xlink" width="12px" height="12px" viewBox="435 119  12 12" xmlns="http://www.w3.org/2000/svg">
  <path d="M 441 119  C 444.36 119  447 121.64  447 125  C 447 128.36  444.36 131  441 131  C 437.64 131  435 128.36  435 125  C 435 121.64  437.64 119  441 119  Z " fill-rule="nonzero" fill="#ffffff" stroke="none" />
  <path d="M 441 119.5  C 444.08 119.5  446.5 121.92  446.5 125  C 446.5 128.08  444.08 130.5  441 130.5  C 437.92 130.5  435.5 128.08  435.5 125  C 435.5 121.92  437.92 119.5  441 119.5  Z " stroke-width="1" stroke="#797979" fill="none" />
  <path d="M 441 128  C 439.32 128  438 126.68  438 125  C 438 123.32  439.32 122  441 122  C 442.68 122  444 123.32  444 125  C 444 126.68  442.68 128  441 128  " fill-rule="nonzero" fill="#797979" stroke="none" />
</svg>