<?xml version="1.0" encoding="utf-8"?>
<svg version="1.1" xmlns:xlink="http://www.w3.org/1999/xlink" width="245px" height="152px" xmlns="http://www.w3.org/2000/svg">
  <g transform="matrix(1 0 0 1 -759 -275 )">
    <path d="M 759 275  L 1004 275  L 1004 427  L 759 427  L 759 275  " fill-rule="nonzero" fill="#cccccc" stroke="none" />
    <path d="M 770 286  L 993 286  L 993 416  L 770 416  L 770 286  " fill-rule="nonzero" fill="#ffffff" stroke="none" />
    <path d="M 897.8 320.6  C 891.416 320.6  886.4 315.584  886.4 309.2  C 886.4 302.816  891.416 297.8  897.8 297.8  C 904.184 297.8  909.2 302.816  909.2 309.2  C 909.2 315.584  904.184 320.6  897.8 320.6  " fill-rule="nonzero" fill="#cccccc" stroke="none" />
    <path d="M 774 412  L 774 344.9  L 827.75 314.4  L 903 366.58612244898  L 946 332.7  L 989 366.58612244898  L 989 412  L 774 412  " fill-rule="nonzero" fill="#169bd5" stroke="none" />
  </g>
</svg>